<svg width="500" height="500" viewBox="0 0 500 500" fill="none" xmlns="http://www.w3.org/2000/svg">
<g filter="url(#filter0_d_5_42)">
<path d="M317.765 52C424.101 52 424.101 239.376 317.765 239.376H212.395V445.948C212.395 445.948 154.394 393.912 154.394 335.961L154.394 239.376C154.394 181.424 212.395 181.424 212.395 181.424H306.164C350.632 181.424 350.632 109.951 306.164 109.951C261.697 109.951 212.395 109.951 212.395 109.951C154.394 109.951 103 52 103 52H317.765Z" fill="url(#paint0_linear_5_42)"/>
<path d="M222.062 249.034H279.5L397.436 448C337.436 448 306.5 390 306.5 390L222.062 249.034Z" fill="url(#paint1_linear_5_42)"/>
<path d="M212.395 110.451V109.951C212.395 110.451 212.395 110.451 212.396 110.451H212.398H212.4H212.404H212.409H212.415H212.423H212.431H212.441H212.451H212.463H212.476H212.49H212.505H212.521H212.538H212.556H212.576H212.596H212.618H212.64H212.664H212.689H212.715H212.742H212.77H212.799H212.829H212.86H212.892H212.925H212.96H212.995H213.032H213.069H213.108H213.147H213.188H213.229H213.272H213.316H213.361H213.406H213.453H213.501H213.55H213.6H213.651H213.702H213.755H213.809H213.864H213.92H213.977H214.035H214.094H214.154H214.215H214.276H214.339H214.403H214.468H214.534H214.601H214.668H214.737H214.807H214.877H214.949H215.022H215.095H215.17H215.245H215.321H215.399H215.477H215.556H215.637H215.718H215.8H215.883H215.967H216.051H216.137H216.224H216.312H216.4H216.49H216.58H216.671H216.764H216.857H216.951H217.046H217.141H217.238H217.336H217.434H217.534H217.634H217.735H217.837H217.94H218.044H218.149H218.254H218.361H218.468H218.576H218.685H218.795H218.906H219.018H219.13H219.244H219.358H219.473H219.589H219.705H219.823H219.941H220.061H220.181H220.302H220.423H220.546H220.669H220.793H220.918H221.044H221.171H221.298H221.427H221.556H221.686H221.816H221.948H222.08H222.213H222.347H222.482H222.617H222.753H222.89H223.028H223.167H223.306H223.446H223.587H223.729H223.871H224.014H224.158H224.303H224.448H224.595H224.742H224.889H225.038H225.187H225.337H225.488H225.639H225.791H225.944H226.098H226.252H226.407H226.563H226.719H226.877H227.034H227.193H227.352H227.513H227.673H227.835H227.997H228.16H228.323H228.488H228.653H228.818H228.985H229.152H229.319H229.488H229.657H229.826H229.997H230.168H230.34H230.512H230.685H230.859H231.033H231.208H231.384H231.56H231.737H231.915H232.093H232.272H232.451H232.631H232.812H232.994H233.176H233.358H233.542H233.726H233.91H234.095H234.281H234.467H234.654H234.842H235.03H235.219H235.408H235.598H235.789H235.98H236.172H236.364H236.557H236.751H236.945H237.139H237.335H237.53H237.727H237.924H238.121H238.319H238.518H238.717H238.917H239.117H239.318H239.519H239.721H239.924H240.127H240.33H240.535H240.739H240.944H241.15H241.356H241.563H241.77H241.978H242.186H242.395H242.604H242.814H243.025H243.235H243.447H243.659H243.871H244.084H244.297H244.511H244.725H244.94H245.155H245.371H245.587H245.804H246.021H246.239H246.457H246.675H246.895H247.114H247.334H247.554H247.775H247.997H248.218H248.441H248.663H248.886H249.11H249.334H249.558H249.783H250.008H250.234H250.46H250.687H250.914H251.141H251.369H251.597H251.826H252.055H252.284H252.514H252.744H252.975H253.206H253.437H253.669H253.901H254.134H254.367H254.6H254.834H255.068H255.302H255.537H255.772H256.008H256.244H256.48H256.717H256.954H257.191H257.429H257.667H257.905H258.144H258.383H258.623H258.862H259.103H259.343H259.584H259.825H260.066H260.308H260.55H260.792H261.035H261.278H261.522H261.765H262.009H262.253H262.498H262.743H262.988H263.233H263.479H263.725H263.971H264.218H264.465H264.712H264.959H265.207H265.455H265.703H265.952H266.2H266.449H266.699H266.948H267.198H267.448H267.698H267.949H268.2H268.451H268.702H268.954H269.205H269.457H269.71H269.962H270.215H270.468H270.721H270.974H271.228H271.481H271.735H271.989H272.244H272.498H272.753H273.008H273.263H273.519H273.774H274.03H274.286H274.542H274.798H275.055H275.312H275.568H275.825H276.083H276.34H276.598H276.855H277.113H277.371H277.629H277.888H278.146H278.405H278.663H278.922H279.181H279.441H279.7H279.959H280.219H280.479H280.738H280.998H281.258H281.519H281.779H282.039H282.3H282.561H282.821H283.082H283.343H283.604H283.865H284.127H284.388H284.65H284.911H285.173H285.434H285.696H285.958H286.22H286.482H286.744H287.006H287.268H287.531H287.793H288.055H288.318H288.58H288.843H289.106H289.368H289.631H289.894H290.156H290.419H290.682H290.945H291.208H291.471H291.734H291.997H292.26H292.523H292.786H293.049H293.312H293.575H293.838H294.101H294.364H294.627H294.89H295.153H295.417H295.68H295.943H296.206H296.469H296.732H296.995H297.258H297.52H297.783H298.046H298.309H298.572H298.834H299.097H299.36H299.622H299.885H300.147H300.41H300.672H300.934H301.197H301.459H301.721H301.983H302.245H302.507H302.769H303.031H303.292H303.554H303.815H304.077H304.338H304.599H304.86H305.121H305.382H305.643H305.904H306.164C317.133 110.451 325.33 114.852 330.793 121.438C336.265 128.035 339.015 136.851 339.015 145.688C339.015 154.524 336.265 163.34 330.793 169.937C325.33 176.523 317.133 180.924 306.164 180.924H212.395V181.424C212.395 180.924 212.395 180.924 212.394 180.924H212.392L212.383 180.924L212.349 180.925C212.338 180.925 212.325 180.925 212.31 180.925C212.285 180.925 212.255 180.926 212.221 180.926C212.108 180.928 211.943 180.932 211.727 180.939C211.297 180.953 210.667 180.982 209.867 181.039C208.268 181.153 205.987 181.381 203.25 181.837C197.78 182.748 190.479 184.57 183.171 188.221C175.862 191.873 168.537 197.358 163.041 205.595C157.542 213.835 153.894 224.8 153.894 239.376L153.894 335.961C153.894 365.092 168.466 392.694 182.988 412.977C190.254 423.126 197.519 431.459 202.968 437.255C205.693 440.153 207.964 442.417 209.555 443.958C210.351 444.729 210.976 445.318 211.403 445.716C211.617 445.914 211.781 446.065 211.892 446.166C211.947 446.217 211.989 446.255 212.018 446.281L212.05 446.31L212.058 446.318L212.06 446.32C212.061 446.32 212.061 446.32 212.395 445.948L212.061 446.32L212.895 447.068V445.948V239.876H317.765C344.515 239.876 364.597 228.083 377.977 210.4C391.347 192.73 398.017 169.197 398.017 145.688C398.017 122.179 391.347 98.6451 377.977 80.9757C364.597 63.2923 344.515 51.5 317.765 51.5H103H101.888L102.626 52.3318L103 52C102.626 52.3318 102.626 52.3321 102.627 52.3326L102.629 52.3348L102.636 52.3431L102.665 52.3754C102.69 52.4038 102.728 52.4459 102.778 52.5013C102.878 52.6121 103.027 52.776 103.223 52.9894C103.616 53.4162 104.199 54.0412 104.961 54.836C106.484 56.4257 108.724 58.6951 111.592 61.4175C117.329 66.862 125.583 74.1212 135.655 81.3812C155.784 95.8914 183.238 110.451 212.395 110.451ZM222.062 248.534H221.18L221.633 249.291L306.061 390.239L306.065 390.247L306.083 390.28C306.099 390.309 306.122 390.352 306.152 390.407C306.18 390.458 306.214 390.519 306.254 390.591C306.303 390.678 306.36 390.781 306.427 390.898C306.671 391.327 307.035 391.954 307.519 392.752C308.488 394.346 309.937 396.622 311.863 399.351C315.715 404.808 321.478 412.085 329.123 419.362C344.413 433.915 367.264 448.5 397.436 448.5H398.314L397.866 447.745L279.93 248.779L279.785 248.534H279.5H222.062Z" stroke="black"/>
</g>
<defs>
<filter id="filter0_d_5_42" x="97.7766" y="48" width="308.415" height="408" filterUnits="userSpaceOnUse" color-interpolation-filters="sRGB">
<feFlood flood-opacity="0" result="BackgroundImageFix"/>
<feColorMatrix in="SourceAlpha" type="matrix" values="0 0 0 0 0 0 0 0 0 0 0 0 0 0 0 0 0 0 127 0" result="hardAlpha"/>
<feOffset dx="2" dy="2"/>
<feGaussianBlur stdDeviation="2.5"/>
<feComposite in2="hardAlpha" operator="out"/>
<feColorMatrix type="matrix" values="0 0 0 0 0 0 0 0 0 0 0 0 0 0 0 0 0 0 1 0"/>
<feBlend mode="normal" in2="BackgroundImageFix" result="effect1_dropShadow_5_42"/>
<feBlend mode="normal" in="SourceGraphic" in2="effect1_dropShadow_5_42" result="shape"/>
</filter>
<linearGradient id="paint0_linear_5_42" x1="198" y1="148" x2="398" y2="448" gradientUnits="userSpaceOnUse">
<stop stop-color="#BD00FF"/>
<stop offset="1" stop-color="#FF0057"/>
</linearGradient>
<linearGradient id="paint1_linear_5_42" x1="198" y1="148" x2="398" y2="448" gradientUnits="userSpaceOnUse">
<stop stop-color="#BD00FF"/>
<stop offset="1" stop-color="#FF0057"/>
</linearGradient>
</defs>
</svg>
